<svg width="64" height="64" viewBox="0 0 64 64" fill="none" xmlns="http://www.w3.org/2000/svg">
<path d="M32 5C16.9 5 5 16.9 5 32C5 47.1 16.9 59 32 59C47.1 59 59 47.1 59 32C59 16.9 47.1 5 32 5Z" fill="#9E7FFF"/>
<path d="M39.6 21.2H44.4V44.4H39.6V21.2Z" fill="white"/>
<path d="M28.4 21.2H33.2V44.4H28.4V21.2Z" fill="white"/>
<path d="M22.8 28.4H22.8C20.6 28.4 19.6 27.2 19.6 24.8C19.6 22.6 20.6 21.2 22.8 21.2C25 21.2 26 22.6 26 24.8C26 27.2 25 28.4 22.8 28.4Z" fill="white"/>
<path d="M19.6 32H26V44.4H19.6V32Z" fill="white"/>
</svg>
